<?xml version="1.0" encoding="utf-8"?>
<svg version="1.0" width="300.000000pt" height="300.000000pt" viewBox="0 0 300.000000 300.000000" preserveAspectRatio="xMidYMid meet" xmlns="http://www.w3.org/2000/svg">
  <defs/>
  <g transform="translate(0.000000,300.000000) scale(0.100000,-0.100000)" fill="#000000" stroke="none">
    <path d="M1311 2350 c-226 -47 -424 -169 -574 -353 -26 -32 -47 -60 -47 -62 0&#10;-2 44 -42 98 -87 54 -46 156 -132 227 -193 119 -102 255 -217 639 -544 80 -68&#10;146 -127 146 -131 0 -12 -112 -67 -172 -84 -78 -22 -198 -20 -277 4 -64 20&#10;-161 68 -161 79 0 4 34 35 75 69 41 34 75 67 75 72 0 9 -164 150 -174 150 -13&#10;0 -311 -265 -308 -274 2 -5 26 -38 53 -72 97 -122 245 -216 400 -256 111 -28&#10;321 -22 414 11 156 56 281 145 368 261 38 51 45 66 35 75 -13 12 -293 250&#10;-452 384 -50 42 -110 94 -135 117 -25 22 -89 76 -141 119 -52 44 -97 82 -100&#10;85 -3 3 -65 56 -137 119 -73 62 -133 116 -133 121 0 14 106 79 179 110 142 61&#10;298 76 444 44 80 -18 235 -89 285 -131 l33 -28 -74 -61 -74 -62 -43 29 c-73&#10;49 -170 74 -285 74 -141 0 -148 -5 -87 -57 117 -102 404 -343 413 -346 5 -2&#10;51 32 102 76 183 158 332 285 355 302 12 10 22 21 22 25 0 17 -106 138 -163&#10;188 -116 100 -220 157 -372 205 -69 21 -103 25 -245 28 -91 1 -185 -1 -209 -6z" style="fill: rgb(1, 76, 117);"/>
    <path d="M56 1912 c35 -28 268 -226 280 -237 6 -5 80 -68 164 -140 85 -71 174&#10;-148 199 -170 26 -22 68 -57 94 -79 l47 -38 53 41 c28 22 69 56 91 74 l39 33&#10;-209 179 c-115 98 -255 219 -311 267 l-102 88 -183 0 c-175 0 -182 -1 -162&#10;-18z" style="fill: rgb(1, 76, 117);"/>
    <path d="M2282 1664 l-310 -265 42 -38 c71 -64 129 -111 137 -111 5 0 57 42&#10;116 93 59 51 169 145 243 208 74 63 198 169 275 235 76 65 146 124 155 131 12&#10;10 -22 12 -166 13 l-182 0 -310 -266z" style="fill: rgb(1, 76, 117);"/>
  </g>
</svg>